<svg width="288" height="206" viewBox="0 0 288 206" fill="none" xmlns="http://www.w3.org/2000/svg">
<path fill-rule="evenodd" clip-rule="evenodd" d="M71.1439 14.8575C91.2237 6.42511 111.787 1.56842 132.66 0.329169C172.928 -2.06173 212.891 8.62363 246.244 30.7C260.927 40.4192 272.943 51.0016 284.983 64.8175L287.949 68.2213L275.277 80.998L262.604 93.7747L260.278 90.9132C232.079 56.2259 189.025 35.8053 144.121 35.8192C128.795 35.8242 112.495 38.314 98.9142 42.7246L94.9536 44.0109L81.2377 30.1947L67.5219 16.3785L71.1439 14.8575ZM1.78854 66.1778C11.2576 55.0592 22.0249 44.9116 32.8758 36.88L35.9492 34.6051L48.6717 47.4161C55.6692 54.4625 61.3943 60.2944 61.394 60.3767C61.3937 60.4587 60.7657 60.9254 59.998 61.4138C57.2838 63.1408 49.2042 69.3871 45.2604 72.8077C38.9003 78.3238 31.9686 85.5205 26.9333 91.8364C26.1824 92.7782 25.4936 93.5773 25.4028 93.6122C25.3117 93.6469 19.559 87.9608 12.6188 80.9767L0 68.2781L1.78854 66.1778ZM203.631 153.462L171.966 121.571L140.301 89.6796L145.15 89.6828C170.053 89.6991 194.637 99.9956 212.607 117.936C216.694 122.017 219.624 125.441 222.704 129.742L224.581 132.362L214.106 142.912L203.631 153.462ZM66.3238 128.406C74.7751 117.142 85.7276 107.703 97.8354 101.248L100.627 99.7594L114.362 113.583L128.096 127.406L124.354 128.657C119.82 130.173 113.416 133.326 109.473 135.985C102.005 141.02 96.2143 147.146 91.4832 155.014C90.4302 156.765 89.4778 158.232 89.3664 158.273C89.255 158.313 83.3584 152.499 76.2624 145.35L63.3609 132.354L66.3238 128.406ZM127.168 182.264C129.135 176.53 134.295 171.913 140.154 170.646C148.934 168.746 157.87 173.779 160.78 182.264C161.355 183.938 161.46 184.84 161.46 188.092C161.46 191.344 161.355 192.246 160.78 193.92C157.881 202.37 149.036 207.396 140.301 205.555C134.319 204.294 129.158 199.722 127.168 193.92C126.594 192.246 126.488 191.344 126.488 188.092C126.488 184.84 126.594 183.938 127.168 182.264Z" fill="#0D0D0D"/>
<path d="M35.0164 8.65855C31.5833 12.1191 28.7741 15.0824 28.7741 15.244C28.7741 15.4056 69.0765 56.1276 118.335 105.738L207.895 195.938L214.358 189.424L220.82 182.91L131.189 92.6382C81.8922 42.9886 41.4908 2.36638 41.4085 2.36638C41.3262 2.36638 38.4498 5.19769 35.0164 8.65855Z" fill="#0D0D0D"/>
</svg>
