<svg width="26" height="26" viewBox="0 0 26 26" fill="none" xmlns="http://www.w3.org/2000/svg">
<path d="M2.6 2.6H7.813V0H0V7.8H2.6V2.6ZM2.6 18.2H0V26H7.813V23.4H2.6V18.2ZM23.4 23.4H18.2V26H26V18.2H23.4V23.4ZM18.2 2.6H23.4V7.8H26V0H18.2V2.6Z" fill="#0D0D0D"/>
<path d="M3.8999 11.6999H11.6999V3.8999H3.8999V11.6999ZM6.4999 6.4999H9.0999V9.0999H6.4999V6.4999ZM3.8999 22.0999H11.6999V14.2999H3.8999V22.0999ZM6.4999 16.8999H9.0999V19.4999H6.4999V16.8999ZM22.0999 3.8999H14.2999V11.6999H22.0999V3.8999ZM19.4999 9.0999H16.8999V6.4999H19.4999V9.0999ZM14.3129 14.2999H16.9129V16.8999H14.3129V14.2999ZM16.9129 16.8999H19.5129V19.4999H16.9129V16.8999ZM19.5129 19.4999H22.1129V22.0999H19.5129V19.4999ZM19.5129 14.2999H22.1129V16.8999H19.5129V14.2999Z" fill="#0D0D0D"/>
</svg>
