<svg width="22" height="15" viewBox="0 0 22 15" fill="none" xmlns="http://www.w3.org/2000/svg">
<path fill-rule="evenodd" clip-rule="evenodd" d="M22 7.07197C22 6.8636 21.9172 6.66376 21.7699 6.51642C21.6225 6.36908 21.4227 6.2863 21.2143 6.2863H2.68366L7.62863 1.34291C7.70168 1.26986 7.75962 1.18314 7.79916 1.0877C7.83869 0.992256 7.85904 0.889962 7.85904 0.786656C7.85904 0.683351 7.83869 0.581058 7.79916 0.485616C7.75962 0.390175 7.70168 0.303454 7.62863 0.230406C7.55558 0.157358 7.46886 0.0994139 7.37342 0.0598807C7.27798 0.0203475 7.17569 0 7.07238 0C6.96908 0 6.86678 0.0203475 6.77134 0.0598807C6.6759 0.0994139 6.58918 0.157358 6.51613 0.230406L0.230818 6.51572C0.157652 6.5887 0.0996029 6.6754 0.0599953 6.77085C0.0203877 6.8663 0 6.96863 0 7.07197C0 7.17531 0.0203877 7.27764 0.0599953 7.37309C0.0996029 7.46854 0.157652 7.55524 0.230818 7.62822L6.51613 13.9135C6.58918 13.9866 6.6759 14.0445 6.77134 14.0841C6.86678 14.1236 6.96908 14.1439 7.07238 14.1439C7.17569 14.1439 7.27798 14.1236 7.37342 14.0841C7.46886 14.0445 7.55558 13.9866 7.62863 13.9135C7.70168 13.8405 7.75962 13.7538 7.79916 13.6583C7.83869 13.5629 7.85904 13.4606 7.85904 13.3573C7.85904 13.254 7.83869 13.1517 7.79916 13.0562C7.75962 12.9608 7.70168 12.8741 7.62863 12.801L2.68366 7.85763H21.2143C21.4227 7.85763 21.6225 7.77486 21.7699 7.62752C21.9172 7.48018 22 7.28034 22 7.07197Z" fill="#0D0D0D"/>
</svg>
