<svg width="23" height="23" viewBox="0 0 23 23" fill="none" xmlns="http://www.w3.org/2000/svg">
<path d="M9.64722 0.624691C10.1657 0.221261 10.8219 0 11.5 0C12.1781 0 12.8343 0.221261 13.3528 0.624691L21.9778 7.34306C22.6269 7.8468 23 8.58882 23 9.37214V20.9355C23 21.4831 22.7644 22.0082 22.3451 22.3953C21.9257 22.7825 21.3569 23 20.7639 23H16.9306C16.3375 23 15.7687 22.7825 15.3494 22.3953C14.93 22.0082 14.6944 21.4831 14.6944 20.9355V15.037C14.6944 14.8024 14.5935 14.5773 14.4138 14.4114C14.234 14.2455 13.9903 14.1523 13.7361 14.1523H9.26389C9.00972 14.1523 8.76597 14.2455 8.58625 14.4114C8.40652 14.5773 8.30556 14.8024 8.30556 15.037V20.9355C8.30556 21.4831 8.06997 22.0082 7.65061 22.3953C7.23126 22.7825 6.6625 23 6.06944 23H2.23611C1.94246 23 1.65169 22.9466 1.38039 22.8429C1.10909 22.7391 0.862584 22.587 0.654942 22.3953C0.4473 22.2036 0.282589 21.976 0.170214 21.7256C0.0578388 21.4751 0 21.2066 0 20.9355V9.37096C0 8.58882 0.373111 7.8468 1.02222 7.34189L9.64722 0.624691Z" fill="#E5E5E5"/>
</svg>
