<svg width="29" height="23" viewBox="0 0 29 23" fill="none" xmlns="http://www.w3.org/2000/svg">
<path d="M7.1377 2C7.1377 0.895431 8.03313 0 9.1377 0H26.2871C27.3916 0 28.2871 0.895431 28.2871 2V13.862C28.2871 14.9666 27.3916 15.862 26.2871 15.862H9.1377C8.03313 15.862 7.1377 14.9666 7.1377 13.862V2Z" fill="white" fill-opacity="0.25"/>
<path d="M17.977 7.13794H3.17241C2.33103 7.13794 1.52412 7.49605 0.929177 8.13349C0.334235 8.77092 0 9.63547 0 10.5369V19.601C0 20.5024 0.334235 21.367 0.929177 22.0044C1.52412 22.6419 2.33103 23 3.17241 23H17.977C18.8183 23 19.6253 22.6419 20.2202 22.0044C20.8151 21.367 21.1494 20.5024 21.1494 19.601V10.5369C21.1494 9.63547 20.8151 8.77092 20.2202 8.13349C19.6253 7.49605 18.8183 7.13794 17.977 7.13794ZM9.51722 18.468H5.28735C5.00689 18.468 4.73792 18.3486 4.5396 18.1361C4.34129 17.9236 4.22988 17.6355 4.22988 17.335C4.22988 17.0345 4.34129 16.7463 4.5396 16.5338C4.73792 16.3213 5.00689 16.202 5.28735 16.202H9.51722C9.79768 16.202 10.0667 16.3213 10.265 16.5338C10.4633 16.7463 10.5747 17.0345 10.5747 17.335C10.5747 17.6355 10.4633 17.9236 10.265 18.1361C10.0667 18.3486 9.79768 18.468 9.51722 18.468ZM15.862 18.468H13.7471C13.4666 18.468 13.1977 18.3486 12.9994 18.1361C12.801 17.9236 12.6896 17.6355 12.6896 17.335C12.6896 17.0345 12.801 16.7463 12.9994 16.5338C13.1977 16.3213 13.4666 16.202 13.7471 16.202H15.862C16.1425 16.202 16.4115 16.3213 16.6098 16.5338C16.8081 16.7463 16.9195 17.0345 16.9195 17.335C16.9195 17.6355 16.8081 17.9236 16.6098 18.1361C16.4115 18.3486 16.1425 18.468 15.862 18.468ZM19.0344 10.5369C19.0344 11.1627 18.5272 11.67 17.9014 11.67H3.24794C2.6222 11.67 2.11494 11.1627 2.11494 10.5369C2.11494 10.2365 2.22635 9.94827 2.42466 9.73579C2.62298 9.52331 2.89195 9.40394 3.17241 9.40394H17.977C18.2574 9.40394 18.5264 9.52331 18.7247 9.73579C18.923 9.94827 19.0344 10.2365 19.0344 10.5369Z" fill="white"/>
</svg>
