<svg width="46" height="54" viewBox="0 0 46 54" fill="none" xmlns="http://www.w3.org/2000/svg">
<g filter="url(#filter0_d_22_322)">
<path d="M23 4.5C28.0391 4.5 32.8718 6.53188 36.435 10.1487C39.9982 13.7654 42 18.6708 42 23.7857C42 31.77 36.0044 40.1357 24.2667 49.0714C23.9012 49.3496 23.4568 49.5 23 49.5C22.5432 49.5 22.0988 49.3496 21.7333 49.0714C9.99556 40.1357 4 31.77 4 23.7857C4 18.6708 6.00178 13.7654 9.56497 10.1487C13.1282 6.53188 17.9609 4.5 23 4.5ZM23 17.3571C21.3203 17.3571 19.7094 18.0344 18.5217 19.24C17.3339 20.4456 22 36.5 18.5217 28.3314C24 31 19.5 33.5 18.5217 28.3314C21.5 33 19.7094 29.537 18.5217 28.3314C18.5217 30.1964 17.3339 20.4456 18.5217 19.24C17 19.5 19.7094 18.0344 18.5217 19.24C18.5217 17.5351 17.8544 17.7056 16.6667 16.5C15.4789 15.2944 24.6797 17.3571 23 17.3571Z" fill="#FECC00"/>
</g>
<defs>
<filter id="filter0_d_22_322" x="0" y="0.5" width="46" height="53" filterUnits="userSpaceOnUse" color-interpolation-filters="sRGB">
<feFlood flood-opacity="0" result="BackgroundImageFix"/>
<feColorMatrix in="SourceAlpha" type="matrix" values="0 0 0 0 0 0 0 0 0 0 0 0 0 0 0 0 0 0 127 0" result="hardAlpha"/>
<feOffset/>
<feGaussianBlur stdDeviation="2"/>
<feComposite in2="hardAlpha" operator="out"/>
<feColorMatrix type="matrix" values="0 0 0 0 0 0 0 0 0 0 0 0 0 0 0 0 0 0 1 0"/>
<feBlend mode="normal" in2="BackgroundImageFix" result="effect1_dropShadow_22_322"/>
<feBlend mode="normal" in="SourceGraphic" in2="effect1_dropShadow_22_322" result="shape"/>
</filter>
</defs>
</svg>
