<svg width="27" height="27" viewBox="0 0 27 27" fill="none" xmlns="http://www.w3.org/2000/svg">
<path d="M2.55811 0.784451C4.00251 -0.0211391 5.84438 -0.209897 7.60506 0.235032C8.46257 0.450755 9.19492 1.00523 9.63467 1.76869L11.1535 4.40792C11.6948 5.34884 11.8512 6.46152 11.59 7.5144C11.3288 8.56728 10.6703 9.47926 9.75137 10.0605L8.41521 10.9066C7.86214 11.2554 7.65918 11.7897 7.78603 12.2127C8.23931 13.7261 9.24228 15.4047 10.345 16.5541C10.6731 16.8979 11.2753 16.9788 11.8638 16.6367L12.603 16.207C13.0879 15.9253 13.6244 15.7426 14.1809 15.6697C14.7375 15.5968 15.303 15.635 15.8446 15.7821C16.3862 15.9293 16.8929 16.1824 17.3353 16.5268C17.7777 16.8711 18.1468 17.2998 18.4212 17.7878L19.7827 20.2063C20.2275 20.9984 20.3002 21.9438 19.9857 22.7949C19.3582 24.4853 18.1489 25.8488 16.6622 26.5313C15.1518 27.224 13.3844 27.1953 11.7844 26.1319C9.25073 24.4499 6.19787 21.6186 3.43253 16.8963C0.631674 12.1099 -0.0736141 8.03645 0.00587875 4.99947C0.0566189 3.05628 1.08834 1.60352 2.55811 0.784451ZM18.1049 0.144024C17.9089 0.0354081 17.6776 0.00883539 17.4619 0.0701513C17.2462 0.131467 17.0638 0.275649 16.9548 0.470979C16.8458 0.666309 16.8191 0.896785 16.8806 1.11171C16.9422 1.32663 17.0869 1.50839 17.2829 1.61701L17.9324 1.97767C19.9613 3.10078 21.6872 4.6967 22.9625 6.62903C24.2379 8.56136 25.0247 10.7727 25.2559 13.0739L25.31 13.6048C25.3164 13.7184 25.3458 13.8296 25.3965 13.9316C25.4471 14.0336 25.518 14.1243 25.6048 14.1982C25.6916 14.2722 25.7926 14.3278 25.9016 14.3618C26.0106 14.3958 26.1253 14.4075 26.239 14.3961C26.3526 14.3847 26.4628 14.3505 26.5628 14.2956C26.6628 14.2406 26.7506 14.166 26.8209 14.0763C26.8912 13.9866 26.9425 13.8837 26.9718 13.7737C27.001 13.6637 27.0076 13.5489 26.9912 13.4363L26.9387 12.9071C26.6807 10.3346 25.8013 7.86257 24.3757 5.70246C22.9501 3.54235 21.0208 1.75835 18.7527 0.503L18.1049 0.144024ZM16.1226 4.66072C16.2382 4.46922 16.4253 4.33128 16.6429 4.27724C16.8605 4.22319 17.0907 4.25747 17.2829 4.37253L17.4926 4.49724C18.8579 5.31287 20.0291 6.41418 20.9253 7.72507C21.8215 9.03596 22.4213 10.5251 22.6833 12.0897L22.7578 12.5397C22.7797 12.6503 22.7791 12.7642 22.756 12.8747C22.7329 12.9851 22.6879 13.0898 22.6234 13.1825C22.559 13.2753 22.4765 13.3542 22.3809 13.4146C22.2853 13.475 22.1785 13.5157 22.0669 13.5342C21.9552 13.5527 21.8409 13.5486 21.7309 13.5223C21.6208 13.496 21.5171 13.448 21.426 13.381C21.3349 13.314 21.2583 13.2295 21.2006 13.1325C21.1429 13.0354 21.1053 12.9278 21.0901 12.8161L21.014 12.3678C20.7929 11.0439 20.2859 9.7836 19.5281 8.67408C18.7704 7.56456 17.7798 6.63224 16.625 5.94158L16.4152 5.81686C16.3199 5.76 16.2368 5.68498 16.1706 5.5961C16.1044 5.50721 16.0564 5.40621 16.0294 5.29884C16.0024 5.19148 15.9969 5.07986 16.0132 4.97037C16.0295 4.86088 16.0672 4.75566 16.1243 4.66072H16.1226Z" fill="#F07F1C"/>
</svg>
