<svg width="25" height="23" viewBox="0 0 25 23" fill="none" xmlns="http://www.w3.org/2000/svg">
<path fill-rule="evenodd" clip-rule="evenodd" d="M2.34375 2.68342C2.34375 2.58175 2.38491 2.48425 2.45816 2.41236C2.53142 2.34047 2.63077 2.30008 2.73438 2.30008H22.2656C22.3692 2.30008 22.4686 2.34047 22.5418 2.41236C22.6151 2.48425 22.6562 2.58175 22.6562 2.68342V15.7172C22.6562 15.8189 22.6151 15.9164 22.5418 15.9883C22.4686 16.0602 22.3692 16.1005 22.2656 16.1005H12.1094C11.7987 16.1008 11.5008 16.2222 11.2812 16.4379L7.03125 20.6087V17.2506C7.03125 16.9456 6.90778 16.6531 6.68802 16.4374C6.46825 16.2217 6.17018 16.1005 5.85938 16.1005H2.73438C2.63077 16.1005 2.53142 16.0602 2.45816 15.9883C2.38491 15.9164 2.34375 15.8189 2.34375 15.7172V2.68342ZM2.73438 0C2.00917 0 1.31367 0.282717 0.80088 0.785957C0.288085 1.2892 0 1.97174 0 2.68342L0 15.7172C0 17.1985 1.225 18.4006 2.73438 18.4006H4.6875V20.7666C4.68766 21.2084 4.82126 21.6402 5.07142 22.0075C5.32159 22.3747 5.67708 22.6609 6.09297 22.83C6.50886 22.999 6.96647 23.0433 7.40798 22.9571C7.84948 22.871 8.25506 22.6583 8.57344 22.346L12.5953 18.4006H22.2656C22.9908 18.4006 23.6863 18.1179 24.1991 17.6147C24.7119 17.1114 25 16.4289 25 15.7172V2.68342C25 1.97174 24.7119 1.2892 24.1991 0.785957C23.6863 0.282717 22.9908 0 22.2656 0H2.73438Z" fill="#E5E5E5"/>
<path fill-rule="evenodd" clip-rule="evenodd" d="M2.34375 2.68342C2.34375 2.58175 2.38491 2.48425 2.45816 2.41236C2.53142 2.34047 2.63077 2.30008 2.73438 2.30008H22.2656C22.3692 2.30008 22.4686 2.34047 22.5418 2.41236C22.6151 2.48425 22.6562 2.58175 22.6562 2.68342V15.7172C22.6562 15.8189 22.6151 15.9164 22.5418 15.9883C22.4686 16.0602 22.3692 16.1005 22.2656 16.1005H12.1094C11.7987 16.1008 11.5008 16.2222 11.2812 16.4379L7.03125 20.6087V17.2506C7.03125 16.9456 6.90778 16.6531 6.68802 16.4374C6.46825 16.2217 6.17018 16.1005 5.85938 16.1005H2.73438C2.63077 16.1005 2.53142 16.0602 2.45816 15.9883C2.38491 15.9164 2.34375 15.8189 2.34375 15.7172V2.68342ZM6.17291 5.55172C5.827 5.55172 5.4781 5.63186 5.21598 5.85759C5.0563 5.9951 4.89916 6.16647 4.83871 6.34483C4.73912 6.63866 4.73912 6.8441 4.83871 7.13793C4.89916 7.31629 5.0563 7.48766 5.21598 7.62517C5.4781 7.8509 5.827 7.93103 6.17291 7.93103H18.8271C19.173 7.93103 19.5219 7.8509 19.784 7.62517C19.9437 7.48766 20.1008 7.31629 20.1613 7.13793C20.2609 6.8441 20.2609 6.63866 20.1613 6.34483C20.1008 6.16647 19.9437 5.9951 19.784 5.85759C19.5219 5.63186 19.173 5.55172 18.8271 5.55172H6.17291ZM19.784 12.3838C19.5219 12.6095 19.173 12.6897 18.8271 12.6897H6.17291C5.827 12.6897 5.4781 12.6095 5.21598 12.3838C5.0563 12.2463 4.89916 12.0749 4.83871 11.8966C4.73912 11.6027 4.73912 11.3973 4.83871 11.1034C4.89916 10.9251 5.0563 10.7537 5.21598 10.6162C5.4781 10.3905 5.827 10.3103 6.17291 10.3103H18.8271C19.173 10.3103 19.5219 10.3905 19.784 10.6162C19.9437 10.7537 20.1008 10.9251 20.1613 11.1034C20.2609 11.3973 20.2609 11.6027 20.1613 11.8966C20.1008 12.0749 19.9437 12.2463 19.784 12.3838Z" fill="#E5E5E5"/>
</svg>
