<svg width="25" height="23" viewBox="0 0 25 23" fill="none" xmlns="http://www.w3.org/2000/svg">
<path d="M4.25299 -7.3115e-06C4.7524 -7.3115e-06 5.18233 0.355639 5.27787 0.847204L5.259 2.15626H23.5289C24.4105 2.15626 25.114 3.0356 24.8665 3.92189L22.5214 12.2611C22.352 12.8604 21.8049 13.2729 21.1838 13.2729H7.413L7.81253 15.3573H21.1925C21.7701 15.3573 22.2348 15.8219 22.2348 16.3995C22.2348 16.977 21.7701 17.4417 21.1925 17.4417H6.90924C6.44891 17.4417 6.01898 17.0856 5.92344 16.5949L3.47975 2.15626L1.04226 2.08437C0.466845 2.08437 0 1.61755 0 1.04218C0 0.466806 0.466845 -7.3115e-06 1.04226 -7.3115e-06H4.25299ZM5.55864 20.9156C5.55864 19.7649 6.49234 18.8313 7.64316 18.8313C8.79399 18.8313 9.72768 19.7649 9.72768 20.9156C9.72768 22.0664 8.79399 23 7.64316 23C6.49234 23 5.55864 22.0664 5.55864 20.9156ZM22.2348 20.9156C22.2348 22.0664 21.3011 23 20.1503 23C18.9994 23 18.0658 22.0664 18.0658 20.9156C18.0658 19.7649 18.9994 18.8313 20.1503 18.8313C21.3011 18.8313 22.2348 19.7649 22.2348 20.9156Z" fill="#E5E5E5"/>
</svg>
